# xmcd
#
# Track frame offsets: 
#        150
#        19069
#        30906
#        44363
#        59575
#        72123
#        86963
#        103792
#        119417
#        135086
#        150898
#        160894
#        178548
#        190987
#        205598
#        218411
#        232637
#        249680
#        265511
#
# Disc length: 3680 seconds
#
# Revision: 0
# Processed by: cddbd v1.5.2PL0 Copyright (c) Steve Scherf et al.
# Submitted via: ExactAudioCopy v0.99pb5
#
DISCID=ed0e5e13
DTITLE=Don Williams - Live In Ireland
DYEAR=2016
DGENRE=Country
TTITLE0=Good Ole Boys Like Me
TTITLE1=Some Broken Hearts Never Mend
TTITLE2=Lay Down Beside Me
TTITLE3=Younger Days
TTITLE4=She Never Knew
TTITLE5=Elise
TTITLE6=How Did You Do It
TTITLE7=From Now On
TTITLE8=If Hollywood Don't Need You
TTITLE9=Till The Rivers Run Dry
TTITLE10=It Must Be Love
TTITLE11=I Believe In You
TTITLE12=Imagine That
TTITLE13=Tulsa Time
TTITLE14=Amanda
TTITLE15=You're My Best Friend
TTITLE16=Lord, I Hope This Day Is Good
TTITLE17=I Recall A Gypsy Woman
TTITLE18=Louisiana Saturday Night
EXTD=
EXTT0=
EXTT1=
EXTT2=
EXTT3=
EXTT4=
EXTT5=
EXTT6=
EXTT7=
EXTT8=
EXTT9=
EXTT10=
EXTT11=
EXTT12=
EXTT13=
EXTT14=
EXTT15=
EXTT16=
EXTT17=
EXTT18=
PLAYORDER=
